<svg width="25" height="24" viewBox="0 0 25 24" fill="none" xmlns="http://www.w3.org/2000/svg">
<path d="M21.5 7V6H19.5V7H18.221L17.221 4H7.779L6.779 7H2.5V21H22.5V7H21.5ZM20.5 19H4.5V9H8.221L9.221 6H15.779L16.779 9H20.5V19Z" fill="#F8F8F8"/>
<path d="M12.5 9C11.61 9 10.74 9.26392 9.99994 9.75839C9.25991 10.2529 8.68314 10.9557 8.34254 11.7779C8.00195 12.6002 7.91283 13.505 8.08647 14.3779C8.2601 15.2508 8.68869 16.0526 9.31802 16.682C9.94736 17.3113 10.7492 17.7399 11.6221 17.9135C12.495 18.0872 13.3998 17.9981 14.2221 17.6575C15.0443 17.3169 15.7471 16.7401 16.2416 16.0001C16.7361 15.26 17 14.39 17 13.5C16.9987 12.3069 16.5241 11.1631 15.6805 10.3195C14.8369 9.47585 13.6931 9.00132 12.5 9ZM12.5 16C12.0055 16 11.5222 15.8534 11.1111 15.5787C10.7 15.304 10.3795 14.9135 10.1903 14.4567C10.0011 13.9999 9.95158 13.4972 10.048 13.0123C10.1445 12.5273 10.3826 12.0819 10.7322 11.7322C11.0819 11.3826 11.5273 11.1445 12.0123 11.048C12.4972 10.9516 12.9999 11.0011 13.4567 11.1903C13.9135 11.3795 14.304 11.7 14.5787 12.1111C14.8534 12.5222 15 13.0055 15 13.5C15 14.163 14.7366 14.7989 14.2678 15.2678C13.7989 15.7366 13.163 16 12.5 16Z" fill="#F8F8F8"/>
</svg>
